<?xml version="1.0" encoding="UTF-8"?>
<svg version="1.1" xmlns="http://www.w3.org/2000/svg" width="500" height="463" fill="white" classname="fill-white">
<path d="M0 0 C0.66467285 0.30953613 1.3293457 0.61907227 2.01416016 0.93798828 C11.59323631 5.5036276 19.86803131 11.21452417 28 18 C29.34384766 19.11375 29.34384766 19.11375 30.71484375 20.25 C36.90849827 25.59429358 42.04307004 31.50567635 47 38 C47.58265625 38.74378906 48.1653125 39.48757812 48.765625 40.25390625 C71.83559376 71.24743904 78.85695114 111.10260325 73.68359375 148.8359375 C69.74370861 174.20809531 57.02124415 194.38387176 42.70776367 215.10058594 C30.28404281 233.14106896 15.12250344 256.46779671 14 279 C15.07994826 281.20573582 15.07994826 281.20573582 16.875 282.8125 C20.99012391 286.9946143 20.99012391 286.9946143 21.01953125 289.98828125 C20.56103201 295.13558402 20.00867658 298.40246974 16 302 C14.61691706 302.67270571 13.21981009 303.31707297 11.8125 303.9375 C9.71979927 304.81604734 9.71979927 304.81604734 8 306 C6.86521065 309.12133744 6.86521065 309.12133744 7 312 C7.845625 312.04125 8.69125 312.0825 9.5625 312.125 C14.05987472 313.26978629 16.90843359 315.57628182 20 319 C21.61070042 323.83210126 21.67295261 327.50780074 19.5625 332.1875 C14.43025417 337.82045275 7.24437846 339.41940834 0 341 C-0.32617707 345.1587576 -0.47166945 347.31531854 1.9375 350.8125 C2.618125 351.534375 3.29875 352.25625 4 353 C5.74085086 356.48170171 5.44293279 360.19334576 5 364 C3.08013903 368.23969297 1.30206525 370.01355716 -2.875 371.75 C-7.57982588 373.8371686 -9.11004654 377.00895604 -11.515625 381.40625 C-17.89331714 392.55042784 -27.94977179 398.4397053 -40 402 C-53.10096938 405.11534862 -65.9647239 402.35153641 -77.4609375 395.67578125 C-82.39265976 392.42084456 -86.54416112 388.56236367 -90.5625 384.25 C-93.46644811 381.56943251 -96.37422009 380.51623524 -100 379 C-102.57606732 377.23742763 -103.70559969 375.98452052 -104.6015625 372.98828125 C-105.32776087 368.79484167 -105.37429428 366.01957248 -103.0625 362.375 C-100.72090992 358.54330715 -100.64051175 356.40373103 -101 352 C-101.79664063 351.98582031 -102.59328125 351.97164063 -103.4140625 351.95703125 C-113.16357809 351.51818444 -113.16357809 351.51818444 -116.625 349 C-119.68185448 345.13871013 -120.87333724 341.9229592 -121 337 C-119.8132747 332.47560978 -118.70060324 330.56644517 -115.0625 327.625 C-112.60424472 326.32061965 -110.72239523 325.41883004 -108 325 C-108 323.02 -108 321.04 -108 319 C-108.53109375 318.76925781 -109.0621875 318.53851563 -109.609375 318.30078125 C-114.15315621 316.20301365 -117.36061786 314.434162 -120 310 C-121.57486646 305.27540061 -120.65542218 302.18633095 -118.88671875 297.734375 C-118 296 -118 296 -116 294 C-116.12578364 290.2708849 -117.15692538 286.62359956 -118 283 C-118.14824219 282.3596582 -118.29648438 281.71931641 -118.44921875 281.05957031 C-124.29105941 256.51215586 -136.2079243 235.10514819 -149.5625 213.9375 C-166.58471542 186.89984865 -177.16233064 160.86097113 -177.24023438 128.50170898 C-177.24985354 126.09908243 -177.28091189 123.69734554 -177.3125 121.29492188 C-177.41304198 106.77470547 -175.77772464 92.47200805 -171 78.6875 C-170.55660278 77.39356323 -170.55660278 77.39356323 -170.10424805 76.07348633 C-158.31503515 43.19279742 -135.63913991 16.08437654 -104.13452148 0.71655273 C-71.04072554 -14.65659293 -33.24070773 -15.53133854 0 0 Z M-72 3 C-73.7325 3.1546875 -73.7325 3.1546875 -75.5 3.3125 C-87.17621808 4.6449891 -98.03464715 10.10500254 -108 16 C-109.40185547 16.80050781 -109.40185547 16.80050781 -110.83203125 17.6171875 C-118.45849103 22.17778862 -124.63917572 27.86798235 -131 34 C-131.98806641 34.89332031 -131.98806641 34.89332031 -132.99609375 35.8046875 C-153.32886411 54.68176299 -164.87672508 86.50483283 -166.17578125 113.67675781 C-166.79000348 130.34449826 -166.82877747 146.88906725 -162 163 C-161.80164551 163.6712793 -161.60329102 164.34255859 -161.39892578 165.03417969 C-156.23405033 181.77379989 -146.9815677 197.07453369 -137.625 211.75 C-123.62756468 233.72914902 -112.68229356 255.59306806 -107.17797852 281.10571289 C-106.83851196 282.59639282 -106.83851196 282.59639282 -106.4921875 284.1171875 C-106.29995605 285.01034668 -106.10772461 285.90350586 -105.90966797 286.82373047 C-105.17062055 289.09240402 -105.17062055 289.09240402 -103.28662109 290.33398438 C-100.28746509 291.20753739 -98.0188019 290.93376887 -94.921875 290.5390625 C-93.76171875 290.39726562 -92.6015625 290.25546875 -91.40625 290.109375 C-90.1996875 289.94953125 -88.993125 289.7896875 -87.75 289.625 C-86.52796875 289.47289062 -85.3059375 289.32078125 -84.046875 289.1640625 C-81.02970079 288.78691572 -78.01441565 288.39850093 -75 288 C-74.44916223 262.90533567 -74.44916223 262.90533567 -77 238 C-77.15597656 237.11006348 -77.31195313 236.22012695 -77.47265625 235.30322266 C-80.32642592 219.56256902 -83.78991299 203.21760147 -90.08911133 188.44604492 C-91.28539881 185.23360743 -91.13321056 182.39686938 -91 179 C-87.6875 178.6875 -87.6875 178.6875 -84 179 C-63.46824754 206.18651644 -64.3995784 253.55652109 -63 286 C-60.45697924 285.84456278 -57.91402281 285.68817456 -55.37109375 285.53125 C-54.30103088 285.46599121 -54.30103088 285.46599121 -53.20935059 285.39941406 C-43.96242339 285.6909867 -43.96242339 285.6909867 -36 283 C-35.87795462 281.50201578 -35.82020351 279.9987188 -35.7890625 278.49609375 C-35.76287842 277.54009277 -35.73669434 276.5840918 -35.7097168 275.59912109 C-35.66778198 274.03411865 -35.66778198 274.03411865 -35.625 272.4375 C-32.9526659 195.9526659 -32.9526659 195.9526659 -16 179 C-13.66055264 179.28730055 -11.3260857 179.61936779 -9 180 C-9.33621819 186.38814559 -10.82821364 191.76957889 -12.91845703 197.80517578 C-22.34197155 225.28540326 -25.25291497 253.10154589 -25 282 C-21.97898912 281.68914673 -18.95819796 281.37636766 -15.9375 281.0625 C-15.08994141 280.97548828 -14.24238281 280.88847656 -13.36914062 280.79882812 C-8.56087034 280.29757987 -3.78050517 279.71999467 1 279 C1.43776653 277.69019322 1.87519253 276.38027262 2.3125 275.0703125 C2.58835937 274.2443457 2.86421875 273.41837891 3.1484375 272.56738281 C3.68011515 270.96442349 4.2069841 269.35985159 4.7265625 267.75292969 C12.78383344 242.83958233 24.80300487 220.56094665 39.8125 199.19921875 C60.79296837 168.51528376 68.47961107 135.88031057 62 99 C55.8698886 68.18479123 39.46183105 39.62877622 13.625 21.1875 C3.8100263 14.7695651 -6.06453486 9.40085803 -17.1875 5.625 C-17.88705811 5.38628174 -18.58661621 5.14756348 -19.30737305 4.90161133 C-30.01114502 1.4781377 -40.62833895 0.67514783 -51.8125 0.75 C-52.98748047 0.74226563 -54.16246094 0.73453125 -55.37304688 0.7265625 C-61.33798909 0.74003498 -66.36492604 1.04559513 -72 3 Z M-15.90234375 291.609375 C-17.33714518 291.77859592 -18.77201746 291.94721696 -20.20695496 292.11528015 C-24.00456911 292.56150692 -27.80126235 293.01514181 -31.59781647 293.47028732 C-35.50917873 293.93789655 -39.42133803 294.39872289 -43.33349609 294.85961914 C-44.89215116 295.04328678 -46.45080595 295.22695682 -48.00946045 295.41062927 C-48.77584587 295.50092344 -49.54223129 295.59121761 -50.33184052 295.68424797 C-52.63562974 295.95598131 -54.93931597 296.22857358 -57.24298096 296.50135803 C-65.64168159 297.49484354 -74.0420531 298.46696884 -82.44921875 299.38671875 C-83.31624924 299.48157562 -84.18327972 299.5764325 -85.07658386 299.67416382 C-88.86292094 300.08659874 -92.64981825 300.49331757 -96.43725586 300.89550781 C-98.3284314 301.09998535 -98.3284314 301.09998535 -100.2578125 301.30859375 C-101.83780029 301.47572876 -101.83780029 301.47572876 -103.44970703 301.64624023 C-106.11495008 301.93671579 -106.11495008 301.93671579 -109 303 C-108.67 304.32 -108.34 305.64 -108 307 C-84.54671648 304.96926199 -61.17911027 302.3629693 -37.80712891 299.55615234 C-32.99305371 298.97806421 -28.17815149 298.40719696 -23.36299324 297.83820915 C-19.61733518 297.39485348 -15.87210958 296.94793119 -12.12701035 296.49988174 C-10.34808189 296.287478 -8.56902214 296.07617074 -6.78982925 295.8659935 C-4.33615956 295.57559047 -1.88311226 295.28041037 0.56982422 294.98388672 C1.29782227 294.89868774 2.02582031 294.81348877 2.77587891 294.72570801 C6.50736828 294.29684805 6.50736828 294.29684805 10 293 C10 292.01 10 291.02 10 290 C1.25621218 289.73717816 -7.23198073 290.55730166 -15.90234375 291.609375 Z M-42.25 309.8125 C-44.48429406 310.07685684 -46.7186688 310.3405328 -48.953125 310.60351562 C-53.39761161 311.12729018 -57.84067591 311.66154134 -62.28320312 312.20166016 C-66.89827648 312.75911591 -71.51586559 313.27410249 -76.13867188 313.76318359 C-77.86219879 313.95191292 -77.86219879 313.95191292 -79.62054443 314.14445496 C-81.81526238 314.38407477 -84.0111077 314.61364457 -86.20806885 314.83174133 C-87.18838074 314.94100449 -88.16869263 315.05026764 -89.17871094 315.1628418 C-90.47080475 315.29737007 -90.47080475 315.29737007 -91.78900146 315.43461609 C-94.34146836 316.08731834 -95.34078603 316.99610564 -97 319 C-96.34 320.65 -95.68 322.3 -95 324 C-80.203883 323.40602233 -65.54048768 321.54821125 -50.84539795 319.80297852 C-48.13325189 319.4821494 -45.42053724 319.16628685 -42.70779896 318.8505106 C-39.4155697 318.46673927 -36.12381422 318.0789875 -32.83203125 317.69140625 C-31.63689407 317.55174942 -30.4417569 317.41209259 -29.21040344 317.26820374 C-21.44511287 316.3435885 -13.7214326 315.23818596 -6 314 C-5.34 311.69 -4.68 309.38 -4 307 C-16.84932299 306.35047731 -29.52337868 308.27518364 -42.25 309.8125 Z M-2.59838867 323.81030273 C-3.35814499 323.89647858 -4.11790131 323.98265442 -4.90068054 324.07144165 C-7.40672459 324.35641912 -9.91236062 324.64481031 -12.41796875 324.93359375 C-14.15862704 325.1330538 -15.89929387 325.33243938 -17.63996887 325.53175354 C-21.28417391 325.94965049 -24.92815937 326.36940712 -28.57202148 326.7902832 C-33.25259899 327.33061255 -37.93385108 327.86483842 -42.6153059 328.39750576 C-46.20744621 328.80715493 -49.79912391 329.22075026 -53.39068031 329.6354847 C-55.1173739 329.8342434 -56.84423133 330.0315839 -58.57124901 330.22750664 C-60.9779279 330.50098408 -63.38391158 330.7799249 -65.78979492 331.06030273 C-66.50927307 331.14086411 -67.22875122 331.22142548 -67.97003174 331.3044281 C-71.27235309 331.45396035 -71.27235309 331.45396035 -74 333 C-76.35823733 333.19120843 -78.70013171 333.32939442 -81.0625 333.4375 C-86.98274347 333.76124228 -92.86255109 334.23177278 -98.75 334.9375 C-100.69132812 335.16759766 -100.69132812 335.16759766 -102.671875 335.40234375 C-105.55664368 335.9203832 -107.51742384 336.50167752 -110 338 C-109.67 338.99 -109.34 339.98 -109 341 C-97.72099405 340.23156888 -86.49019621 339.07131554 -75.25 337.875 C-74.26085602 337.77006226 -73.27171204 337.66512451 -72.25259399 337.55700684 C-54.04462826 335.61683896 -35.86318641 333.47013091 -17.6875 331.25 C-16.41483276 331.09561462 -15.14216553 330.94122925 -13.83093262 330.78216553 C-10.22397885 330.34348827 -6.61774343 329.89936794 -3.01171875 329.453125 C-1.92434921 329.32102631 -0.83697968 329.18892761 0.28334045 329.05282593 C1.2743425 328.92872345 2.26534454 328.80462097 3.28637695 328.67675781 C4.58597099 328.51617889 4.58597099 328.51617889 5.91181946 328.35235596 C8.05179506 328.09583557 8.05179506 328.09583557 10 327 C9.505 325.02 9.505 325.02 9 323 C5.07516594 323 1.29074697 323.36008665 -2.59838867 323.81030273 Z M-23.10546875 341.734375 C-23.81004211 341.81235825 -24.51461548 341.89034149 -25.24053955 341.97068787 C-27.55648038 342.22795326 -29.87200509 342.48875357 -32.1875 342.75 C-32.97834991 342.83859283 -33.76919983 342.92718567 -34.58401489 343.01846313 C-46.54111606 344.35819394 -58.49189898 345.74892631 -70.4375 347.1875 C-71.14200287 347.27181274 -71.84650574 347.35612549 -72.57235718 347.44299316 C-74.56803895 347.68241521 -76.56332597 347.92512079 -78.55859375 348.16796875 C-80.24940063 348.37329224 -80.24940063 348.37329224 -81.97436523 348.58276367 C-84.68006511 348.95588084 -87.32979501 349.4296559 -90 350 C-89.67 351.65 -89.34 353.3 -89 355 C-74.96548978 354.49876749 -61.10197364 353.1447961 -47.16162109 351.47094727 C-43.71421433 351.05821566 -40.26546334 350.65844565 -36.81640625 350.25976562 C-34.60147223 349.99815901 -32.38662497 349.73581649 -30.171875 349.47265625 C-29.15204529 349.3548732 -28.13221558 349.23709015 -27.08148193 349.11573792 C-21.86312494 348.48060569 -17.00380606 347.62157152 -12 346 C-12 344.35 -12 342.7 -12 341 C-15.78420539 341 -19.34682101 341.31614157 -23.10546875 341.734375 Z M-18.86376953 357.69677734 C-19.63996643 357.78280716 -20.41616333 357.86883698 -21.21588135 357.95747375 C-23.77243158 358.24280316 -26.32756666 358.53917132 -28.8828125 358.8359375 C-30.66203366 359.03733319 -32.4413215 359.23814063 -34.22067261 359.43838501 C-37.94503615 359.85913194 -41.66876665 360.2849894 -45.39208984 360.71484375 C-50.16740566 361.26602195 -54.94375031 361.80756509 -59.72055244 362.34569359 C-63.39251693 362.75989164 -67.06407447 363.17760285 -70.73550034 363.59654617 C-72.49690419 363.79741124 -74.25839149 363.99754591 -76.01996231 364.19694138 C-78.47871205 364.47610142 -80.93692081 364.75960542 -83.39501953 365.04443359 C-84.48914658 365.16763222 -84.48914658 365.16763222 -85.6053772 365.2933197 C-88.55340379 365.63891481 -91.17370432 366.05790144 -94 367 C-93.67 368.32 -93.34 369.64 -93 371 C-73.58465478 369.8905517 -54.36302642 367.55318389 -35.07641602 365.12060547 C-34.0344104 364.98951889 -32.99240479 364.85843231 -31.91882324 364.72337341 C-29.9631568 364.4766377 -28.00773092 364.22798372 -26.0526123 363.97694397 C-19.71233599 363.17373269 -13.36798837 362.54009622 -7 362 C-6.67 360.68 -6.34 359.36 -6 358 C-10.40795593 356.80710927 -14.3949174 357.16583475 -18.86376953 357.69677734 Z M-36.74609375 375.05859375 C-37.67543228 375.1672023 -38.60477081 375.27581085 -39.56227112 375.38771057 C-41.52160191 375.61730158 -43.48074135 375.84853086 -45.43969727 376.08129883 C-48.42360175 376.4358486 -51.40801968 376.78576781 -54.39257812 377.13476562 C-56.30211503 377.35910539 -58.21162129 377.58370614 -60.12109375 377.80859375 C-61.00671494 377.91280136 -61.89233612 378.01700897 -62.80479431 378.12437439 C-67.54695593 378.68840704 -72.27557269 379.30255977 -77 380 C-76.85148499 381.90642808 -76.85148499 381.90642808 -76 384 C-67.73110004 390.50922821 -58.03342166 393.57748239 -47.5546875 392.82421875 C-35.86680369 390.96392856 -27.07114508 385.35886849 -20 376 C-20.495 375.01 -20.495 375.01 -21 374 C-26.32619293 373.85260918 -31.46968602 374.42712255 -36.74609375 375.05859375 Z " fill="#6C6A6B" transform="translate(322,31)"/>
<path d="M0 0 C2.6875 0.875 2.6875 0.875 5 2 C5.01458252 3.30670654 5.02916504 4.61341309 5.04418945 5.9597168 C5.10222815 10.81481075 5.17946116 15.66944363 5.26245117 20.52416992 C5.29567422 22.62402861 5.3237143 24.72397603 5.34643555 26.82397461 C5.38002936 29.84527344 5.43234834 32.86576101 5.48828125 35.88671875 C5.49467117 36.82335861 5.5010611 37.75999847 5.50764465 38.72502136 C5.61702076 43.59057461 5.76957227 47.0853652 9 51 C11.95664519 52.4783226 14.74229737 52.06032783 18 52 C17.71253906 51.44183594 17.42507813 50.88367188 17.12890625 50.30859375 C15.96336835 47.92508891 14.93392193 45.52135106 13.9375 43.0625 C13.59589844 42.22847656 13.25429688 41.39445312 12.90234375 40.53515625 C9.91916254 32.1538376 10.44812552 24.10588497 14 16 C18.14656886 9.28486209 23.41606588 5.92893111 31 4 C36.90167492 2.82859004 41.52587355 4.54224767 46.7265625 7.390625 C51.07013418 10.46545581 53.18936657 14.12964388 54.62109375 19.19921875 C56.11930327 28.04946675 52.46417448 34.92046216 47.48046875 41.99609375 C44.55266748 45.95905431 41.54969413 49.57708066 38 53 C44.71700347 53.31985731 49.75726932 52.4793824 56 50 C56.6930543 47.14115102 56.98979058 44.82984295 56.8125 41.875 C57.10830734 35.76164824 58.64646511 29.68900535 62.75390625 24.99609375 C68.5156458 20.00418996 72.73999564 19.52337508 80.37890625 19.6015625 C85.83249692 20.20163396 89.17663802 22.12972561 93 26 C95.2775318 28.91202091 97.11133376 31.8037956 99 35 C100.98 31.04 102.96 27.08 105 23 C106.65 23 108.3 23 110 23 C112 26 112 26 111.74975586 28.8359375 C111.02670978 31.88728142 110.12663069 34.6989136 109.00390625 37.625 C108.61009766 38.66140625 108.21628906 39.6978125 107.81054688 40.765625 C107.39869141 41.83296875 106.98683594 42.9003125 106.5625 44 C105.7503635 46.12464147 104.93913707 48.24963107 104.12890625 50.375 C103.76869385 51.31085938 103.40848145 52.24671875 103.03735352 53.2109375 C100.5170452 59.8658497 100.5170452 59.8658497 99.875 66.875 C99.89304687 67.65617187 99.91109375 68.43734375 99.9296875 69.2421875 C99.95289063 69.82226562 99.97609375 70.40234375 100 71 C101.7015625 71.4640625 101.7015625 71.4640625 103.4375 71.9375 C107 73 107 73 108 74 C108.04080783 75.99958364 108.04254356 78.00045254 108 80 C104.08569552 80.86114699 101.63312003 81.22345413 97.8125 79.875 C94.22823032 77.48548688 91.9244632 74.84892639 90 71 C89.2265625 71.04640625 88.453125 71.0928125 87.65625 71.140625 C79.46007027 71.42465103 74.22595944 70.62802254 67.95703125 65.24609375 C66.19037142 63.5570118 64.51315177 61.9198113 63 60 C63 59.34 63 58.68 63 58 C62.319375 58.28875 61.63875 58.5775 60.9375 58.875 C51.00298688 62.67970715 40.04563724 64.20714722 30 60 C26.2035776 59.97914054 22.5966775 60.8011075 19 62 C12.79209436 62.63131244 9.82056703 61.77849016 4.859375 57.99609375 C3.06204727 56.82700532 3.06204727 56.82700532 1.03515625 57.1015625 C-1.61868319 58.2731231 -3.24602036 59.90772515 -5.3125 61.9375 C-9.10698533 65.39772398 -11.79574106 67.25653444 -17 68 C-17.71027344 67.90589844 -18.42054688 67.81179687 -19.15234375 67.71484375 C-21.73362964 67.40155948 -23.48436869 67.28622226 -26 68 C-28.34782224 70.5693149 -30.13801433 73.30353786 -32.03515625 76.21875 C-35.15550943 80.63563163 -38.73708029 83.38858091 -44.10546875 84.39453125 C-48.55830509 84.62009707 -51.56018121 83.77096513 -55 81 C-60.00711909 75.43105849 -61.70546331 69.00666092 -64 62 C-64.39832031 60.8140625 -64.79664063 59.628125 -65.20703125 58.40625 C-66.9279636 53.10358918 -68.36854189 48.63228146 -68 43 C-66.8125 41.0625 -66.8125 41.0625 -65 40 C-62.5 39.9375 -62.5 39.9375 -60 41 C-57.00033077 45.99944872 -55.53604659 51.43983794 -53.9375 57 C-53.4265858 58.75023506 -52.9148861 60.50024104 -52.40234375 62.25 C-52.16370605 63.06726563 -51.92506836 63.88453125 -51.67919922 64.7265625 C-50.8487561 67.50624844 -49.94303978 70.25661156 -49 73 C-45.0541669 72.16530454 -42.57642504 71.57642504 -39.6875 68.6875 C-38.05495628 66.08752297 -36.8720032 63.94027209 -36 61 C-36.62288326 58.6459793 -36.62288326 58.6459793 -37.875 56.375 C-41.0760881 49.03645109 -41.11658568 42.33458172 -38.375 34.8125 C-34.9614444 27.31932918 -30.93403181 21.57894692 -23.42578125 17.84375 C-15.98153559 15.25444716 -10.01997658 17.20686646 -3 20 C-3.05220703 18.08574219 -3.05220703 18.08574219 -3.10546875 16.1328125 C-3.13360231 14.46355479 -3.16090293 12.7942829 -3.1875 11.125 C-3.21263672 10.28324219 -3.23777344 9.44148437 -3.26367188 8.57421875 C-3.27333984 7.76855469 -3.28300781 6.96289062 -3.29296875 6.1328125 C-3.3086792 5.38918457 -3.32438965 4.64555664 -3.34057617 3.87939453 C-3.22818604 3.25919434 -3.1157959 2.63899414 -3 2 C-2.01 1.34 -1.02 0.68 0 0 Z M22.1875 19.0625 C19.02624955 24.22032968 19.45310321 30.16150728 20 36 C21.34384531 40.19120071 23.37962323 44.3585596 27 47 C31.63406865 46.93892496 33.89416197 44.673235 37.0625 41.5 C41.92971133 36.39306035 45.56879586 31.79028596 46.21484375 24.61328125 C46.04987799 20.27396458 45.29501837 18.36139751 42.5 14.9375 C39.19308914 12.64810017 36.13691274 12.34104891 32.1796875 12.57421875 C27.81984303 13.42587296 25.0499535 15.80522533 22.1875 19.0625 Z M-26.6875 31.9375 C-30.11696004 36.47921735 -31.29077558 39.19501137 -31.3125 44.9375 C-31.32925781 45.95714844 -31.34601563 46.97679687 -31.36328125 48.02734375 C-30.85861845 52.15689637 -29.1236156 54.58930679 -26.578125 57.78515625 C-23.95437142 59.80492695 -21.54370055 59.46971187 -18.34375 59.33984375 C-13.63094898 58.6564876 -10.44850827 56.8312747 -7.4921875 53.09375 C-3.77170638 47.39609891 -2.53384306 42.87581491 -3 36 C-4.15743163 32.5277051 -5.27112002 29.86904921 -7.625 27.0625 C-15.15339938 23.69453186 -21.39476064 26.15241279 -26.6875 31.9375 Z M69 31 C65.96561212 35.49926479 65.18177938 39.68626839 66 45 C67.64949007 51.60833444 70.39199811 56.5304071 75.78125 60.7734375 C79.53374939 62.84788259 82.87836307 63.1462076 87 62 C89.75569447 59.81840855 91.43588747 58.12822506 93 55 C93.70466748 47.49124821 93.47684184 41.24439751 89 35 C85.35957231 30.81350816 82.6241231 28.27916203 77.0625 27.6875 C73.47624554 28.05344433 71.7972397 28.73196781 69 31 Z " fill="#6E6B6D" transform="translate(253,132)"/>
<path d="M0 0 C4.94713119 1.46496443 9.21872781 3.54373749 13.6875 6.0625 C14.73272827 6.65043335 14.73272827 6.65043335 15.79907227 7.25024414 C31.02224734 16.04449467 31.02224734 16.04449467 34 22 C28.46153846 21.50769231 28.46153846 21.50769231 26.125 18.9375 C25.75375 18.298125 25.3825 17.65875 25 17 C23.35444301 18.22809091 23.35444301 18.22809091 22 20 C22.24756445 22.07361988 22.24756445 22.07361988 23 24 C23 24.66 23 25.32 23 26 C23.99 26 24.98 26 26 26 C26.33 27.32 26.66 28.64 27 30 C26.57332031 29.6596875 26.14664062 29.319375 25.70703125 28.96875 C19.45191131 24.1194199 12.77450376 20.06883305 6 16 C6.99 15.34 7.98 14.68 9 14 C9.66 14.66 10.32 15.32 11 16 C12.64991582 16.70710678 14.31562256 17.37943989 16 18 C16 17.34 16 16.68 16 16 C16.66 15.34 17.32 14.68 18 14 C18 13.34 18 12.68 18 12 C15.00263439 9.23320098 11.87302138 8.14430177 8 7 C8 6.34 8 5.68 8 5 C7.2575 4.896875 6.515 4.79375 5.75 4.6875 C2.82985982 3.95746496 1.26812446 2.93210602 -1 1 C-0.67 0.67 -0.34 0.34 0 0 Z " fill="#747173" transform="translate(318,30)"/>
<path d="M0 0 C3.45652336 2.98517927 4.43522015 6.41861642 5.9375 10.625 C7.01657059 13.03704015 7.91186701 14.39661217 10 16 C13.48032201 15.73897585 15.05096298 14.96602468 18 13 C18 13.99 18 14.98 18 16 C17.34 16.66 16.68 17.32 16 18 C15.01 18 14.02 18 13 18 C13 18.66 13 19.32 13 20 C12.01 20.33 11.02 20.66 10 21 C9.01 21.66 8.02 22.32 7 23 C6.814375 21.8553125 6.814375 21.8553125 6.625 20.6875 C6.11897208 17.79732864 6.11897208 17.79732864 4 15 C3.01 14.67 2.02 14.34 1 14 C1.33 14.598125 1.66 15.19625 2 15.8125 C3 18 3 18 3 21 C3.99 21.33 4.98 21.66 6 22 C6 22.66 6 23.32 6 24 C4.35 24.33 2.7 24.66 1 25 C1.0825 24.29875 1.165 23.5975 1.25 22.875 C0.91937419 19.07280317 -0.88703964 17.13742599 -3 14 C-3.75 10.625 -3.75 10.625 -4 8 C-3.34 8 -2.68 8 -2 8 C-1.34 5.36 -0.68 2.72 0 0 Z " fill="#6F6D70" transform="translate(270,162)"/>
<path d="M0 0 C-1 2 -1 2 -4.0625 3.125 C-5.031875 3.41375 -6.00125 3.7025 -7 4 C-7 4.66 -7 5.32 -7 6 C-7.639375 6.28875 -8.27875 6.5775 -8.9375 6.875 C-11.15206079 7.82823451 -11.15206079 7.82823451 -12 10 C-11.34 10.33 -10.68 10.66 -10 11 C-12.39614126 11.05425226 -14.79103853 11.09379027 -17.1875 11.125 C-18.19780273 11.15013672 -18.19780273 11.15013672 -19.22851562 11.17578125 C-23.34625241 11.21595429 -26.25845 10.64013151 -30 9 C-32.20862404 8.76193194 -32.20862404 8.76193194 -34.3125 8.875 C-35.529375 8.91625 -36.74625 8.9575 -38 9 C-38 8.34 -38 7.68 -38 7 C-35.04335481 5.5216774 -32.25770263 5.93967217 -29 6 C-29 6.66 -29 7.32 -29 8 C-28.01 8 -27.02 8 -26 8 C-26 7.34 -26 6.68 -26 6 C-25.34 6 -24.68 6 -24 6 C-24 6.99 -24 7.98 -24 9 C-19.545 8.505 -19.545 8.505 -15 8 C-15.66 7.34 -16.32 6.68 -17 6 C-17.99 6.495 -17.99 6.495 -19 7 C-19 6.34 -19 5.68 -19 5 C-20.32 4.67 -21.64 4.34 -23 4 C-22.38253906 3.89042969 -21.76507813 3.78085938 -21.12890625 3.66796875 C-15.87655017 2.68465095 -10.99078124 1.42814547 -6.0078125 -0.51171875 C-3.65954953 -1.08279438 -2.2671688 -0.75741738 0 0 Z " fill="#6D6C6D" transform="translate(313,183)"/>
<path d="M0 0 C2.6875 0.875 2.6875 0.875 5 2 C5.19330304 8.51414045 5.37078012 15.02857236 5.53710938 21.54345703 C5.5956113 23.76100488 5.65777441 25.97845922 5.72363281 28.19580078 C5.8175126 31.37775653 5.89834326 34.55981315 5.9765625 37.7421875 C6.00875885 38.73805878 6.0409552 39.73393005 6.0741272 40.75997925 C6.09429901 41.68078278 6.11447083 42.6015863 6.13525391 43.55029297 C6.15746002 44.3630368 6.17966614 45.17578064 6.20254517 46.01315308 C6 48 6 48 4 50 C3.06487566 47.19462697 2.87817093 45.51834636 2.88647461 42.62036133 C2.88655014 41.73967484 2.88662567 40.85898834 2.88670349 39.95161438 C2.89186478 39.00465195 2.89702606 38.05768951 2.90234375 37.08203125 C2.9037587 36.10965012 2.90517365 35.13726898 2.90663147 34.13542175 C2.91223183 31.02774996 2.92478438 27.92015004 2.9375 24.8125 C2.94251495 22.70638125 2.94707787 20.60026137 2.95117188 18.49414062 C2.96220138 13.32939936 2.97946625 8.16471187 3 3 C2.01 3 1.02 3 0 3 C-0.33 7.29 -0.66 11.58 -1 16 C-1.33 16 -1.66 16 -2 16 C-2.33 11.38 -2.66 6.76 -3 2 C-2.01 1.34 -1.02 0.68 0 0 Z " fill="#7A7578" transform="translate(253,132)"/>
<path d="M0 0 C1 1 1 1 1.25 4.75 C1.18082666 8.59603788 0.72035675 11.09828614 -2 14 C-5.0625 14.5 -5.0625 14.5 -8 14 C-10 11 -10 11 -9.875 7.5625 C-8.47076664 1.84526416 -6.05651283 -0.81844768 0 0 Z " fill="#706D71" transform="translate(190,157)"/>
<path d="M0 0 C2.5 1.125 2.5 1.125 4.3125 4.25 C5.65851709 7.90239469 5.73793482 11.23873133 5.5 15.125 C4.51 15.455 3.52 15.785 2.5 16.125 C2.5 13.815 2.5 11.505 2.5 9.125 C1.51 9.455 0.52 9.785 -0.5 10.125 C-0.5 13.095 -0.5 16.065 -0.5 19.125 C-1.16 19.125 -1.82 19.125 -2.5 19.125 C-6.20737606 7.9587364 -6.20737606 7.9587364 -5.5 3.125 C-3.87530421 0.47418056 -3.10722394 0.1553612 0 0 Z " fill="#6F6C6F" transform="translate(190.5,171.875)"/>
<path d="M0 0 C1.32 0.66 2.64 1.32 4 2 C4 3.65 4 5.3 4 7 C3.030625 7.2475 2.06125 7.495 1.0625 7.75 C0.051875 8.1625 -0.95875 8.575 -2 9 C-2.96877057 11.03243548 -2.96877057 11.03243548 -3 13 C-5.64 13 -8.28 13 -11 13 C-11 11.02 -11 9.04 -11 7 C-4.25 5 -4.25 5 -2 5 C-1.855625 4.360625 -1.71125 3.72125 -1.5625 3.0625 C-1 1 -1 1 0 0 Z " fill="#6D6B6D" transform="translate(214,203)"/>
<path d="M0 0 C0.33 0.99 0.66 1.98 1 3 C2.32 3.33 3.64 3.66 5 4 C4.01 6.97 3.02 9.94 2 13 C1.01 13 0.02 13 -1 13 C-0.67 14.32 -0.34 15.64 0 17 C-0.66 17.33 -1.32 17.66 -2 18 C-2.33 16.02 -2.66 14.04 -3 12 C-3.66 12 -4.32 12 -5 12 C-5 12.66 -5 13.32 -5 14 C-6.5 15.625 -6.5 15.625 -8 17 C-8.66 16.67 -9.32 16.34 -10 16 C-6.7 10.72 -3.4 5.44 0 0 Z M0 3 C0.33 4.32 0.66 5.64 1 7 C1.66 6.67 2.32 6.34 3 6 C2.16666667 3.83333333 2.16666667 3.83333333 0 3 Z " fill="#706F70" transform="translate(370,216)"/>
<path d="M0 0 C0.66 0.66 1.32 1.32 2 2 C2.99 1.67 3.98 1.34 5 1 C5 2.32 5 3.64 5 5 C6.32 4.67 7.64 4.34 9 4 C8.38511719 4.92619141 8.38511719 4.92619141 7.7578125 5.87109375 C4.11774204 11.59244851 2.08008392 16.30347972 1 23 C0.67 23 0.34 23 0 23 C0 20.03 0 17.06 0 14 C-0.66 13.67 -1.32 13.34 -2 13 C-2.33 13.66 -2.66 14.32 -3 15 C-3.33 14.34 -3.66 13.68 -4 13 C-3.2754531 11.2874346 -2.54541056 9.57664766 -1.76953125 7.88671875 C-0.72001254 5.31353329 -0.33503957 2.7473245 0 0 Z " fill="#6D6A6B" transform="translate(220,157)"/>
<path d="M0 0 C-0.66 1.65 -1.32 3.3 -2 5 C-2.33 4.01 -2.66 3.02 -3 2 C-4.48011371 2.30798326 -5.95907325 2.621518 -7.4375 2.9375 C-8.26121094 3.11152344 -9.08492188 3.28554688 -9.93359375 3.46484375 C-11.97661204 3.80752994 -11.97661204 3.80752994 -13 5 C-14.99958364 5.04080783 -17.00045254 5.04254356 -19 5 C-19 7.31 -19 9.62 -19 12 C-20.32 11.67 -21.64 11.34 -23 11 C-23 8 -23 8 -22 7 C-22.66 5.68 -23.32 4.36 -24 3 C-15.94477649 0.53411525 -8.4055546 -0.15221326 0 0 Z " fill="#746F73" transform="translate(322,326)"/>
<path d="M0 0 C1.2065625 0.0309375 1.2065625 0.0309375 2.4375 0.0625 C3.0975 1.3825 3.7575 2.7025 4.4375 4.0625 C3.4475 4.5575 3.4475 4.5575 2.4375 5.0625 C2.4375 4.4025 2.4375 3.7425 2.4375 3.0625 C1.4475 3.0625 0.4575 3.0625 -0.5625 3.0625 C-1.56467064 6.64577753 -1.56467064 6.64577753 -0.5625 10.0625 C-1.3125 12.125 -1.3125 12.125 -2.5625 14.0625 C-3.5525 14.3925 -4.5425 14.7225 -5.5625 15.0625 C-5.8925 15.7225 -6.2225 16.3825 -6.5625 17.0625 C-7.8825 17.0625 -9.2025 17.0625 -10.5625 17.0625 C-10.5625 14.0625 -10.5625 14.0625 -9.1953125 12.6953125 C-8.65648437 12.15648437 -8.11765625 11.61765625 -7.5625 11.0625 C-6.38545997 8.60627325 -6.38545997 8.60627325 -5.4375 5.9375 C-3.24700342 0.07919521 -3.24700342 0.07919521 0 0 Z " fill="#706B6D" transform="translate(360.5625,154.9375)"/>
<path d="M0 0 C2.1875 -0.3125 2.1875 -0.3125 5 0 C7.8125 2.5 7.8125 2.5 10 5 C9.34 6.98 8.68 8.96 8 11 C0.50243902 9.16097561 0.50243902 9.16097561 -2 6 C-2.66 5.34 -3.32 4.68 -4 4 C-3.01 3.67 -2.02 3.34 -1 3 C-0.67 2.01 -0.34 1.02 0 0 Z " fill="#6C696A" transform="translate(327,38)"/>
<path d="M0 0 C4.94713119 1.46496443 9.21872781 3.54373749 13.6875 6.0625 C14.73272827 6.65043335 14.73272827 6.65043335 15.79907227 7.25024414 C31.02224734 16.04449467 31.02224734 16.04449467 34 22 C31.125 21.8125 31.125 21.8125 28 21 C27.28272222 19.35448038 26.61674772 17.68577711 26 16 C23.73774618 14.92745649 23.73774618 14.92745649 21 14 C19.83470986 13.19409841 18.68994136 12.35805271 17.5625 11.5 C14.52600022 9.24260214 11.6831482 7.98816171 8 7 C8 6.34 8 5.68 8 5 C7.2575 4.896875 6.515 4.79375 5.75 4.6875 C2.82985982 3.95746496 1.26812446 2.93210602 -1 1 C-0.67 0.67 -0.34 0.34 0 0 Z " fill="#7A7778" transform="translate(318,30)"/>
<path d="M0 0 C0.99 0.66 1.98 1.32 3 2 C2.75 3.875 2.75 3.875 2 6 C1.34 6.28875 0.68 6.5775 0 6.875 C-0.99 7.431875 -0.99 7.431875 -2 8 C-3.1640191 12.0865191 -3.1640191 12.0865191 -2 16 C-2.4125 16.474375 -2.825 16.94875 -3.25 17.4375 C-6.61906666 22.37077617 -9.23066912 28.03768572 -10 34 C-10.66 34 -11.32 34 -12 34 C-10.64234983 27.07739833 -8.57051119 20.74882296 -6 14.1875 C-5.64421875 13.26001953 -5.2884375 12.33253906 -4.921875 11.37695312 C-3.42158636 7.49467636 -1.91239676 3.70050889 0 0 Z " fill="#736E71" transform="translate(337,270)"/>
<path d="M0 0 C0.33 0.99 0.66 1.98 1 3 C0.34 3 -0.32 3 -1 3 C-1.33 4.32 -1.66 5.64 -2 7 C-1.34 7 -0.68 7 0 7 C0 8.66666667 0 10.33333333 0 12 C-1.60379341 12.05416188 -3.20811406 12.09286638 -4.8125 12.125 C-5.70582031 12.14820313 -6.59914063 12.17140625 -7.51953125 12.1953125 C-10 12 -10 12 -13 10 C-9.98968256 9.06576355 -9.13349732 8.95550089 -6 10 C-6.66 8.68 -7.32 7.36 -8 6 C-7.34 5.67 -6.68 5.34 -6 5 C-6.99 4.34 -7.98 3.68 -9 3 C-8.67 2.34 -8.34 1.68 -8 1 C-5.35139573 0.40644386 -2.70802678 0.25790731 0 0 Z " fill="#726E70" transform="translate(303,378)"/>
<path d="M0 0 C0.99 0.33 1.98 0.66 3 1 C3 6.28 3 11.56 3 17 C6.96 16.67 10.92 16.34 15 16 C12.71568262 18.35800504 10.9918976 19.88720897 7.6640625 20.265625 C5.43079795 20.251535 3.22617559 20.17460201 1 20 C-0.1482685 17.703463 -0.11561175 16.41686833 -0.09765625 13.8671875 C-0.09443359 13.06152344 -0.09121094 12.25585938 -0.08789062 11.42578125 C-0.07951172 10.58402344 -0.07113281 9.74226563 -0.0625 8.875 C-0.05798828 8.02550781 -0.05347656 7.17601562 -0.04882812 6.30078125 C-0.03702874 4.20049091 -0.01909306 2.1002367 0 0 Z " fill="#797577" transform="translate(256,300)"/>
<path d="M0 0 C1.46373047 0.02707031 1.46373047 0.02707031 2.95703125 0.0546875 C3.69308594 0.07789063 4.42914063 0.10109375 5.1875 0.125 C2.30121599 1.70054035 -0.34592384 2.58776373 -3.5625 3.25 C-4.36171875 3.41757812 -5.1609375 3.58515625 -5.984375 3.7578125 C-6.58765625 3.87898438 -7.1909375 4.00015625 -7.8125 4.125 C-7.8125 4.785 -7.8125 5.445 -7.8125 6.125 C-7.1525 6.785 -6.4925 7.445 -5.8125 8.125 C-10.5625 9.25 -10.5625 9.25 -12.8125 8.125 C-14.4625 9.445 -16.1125 10.765 -17.8125 12.125 C-18.1425 10.475 -18.4725 8.825 -18.8125 7.125 C-17.58672398 6.32809351 -16.35668995 5.53773516 -15.125 4.75 C-14.09826172 4.08871094 -14.09826172 4.08871094 -13.05078125 3.4140625 C-8.58306583 0.84103268 -5.17288253 -0.12464777 0 0 Z " fill="#69666A" transform="translate(220.8125,364.875)"/>
<path d="M0 0 C14.25170676 -0.90073989 14.25170676 -0.90073989 20.64453125 3.515625 C22.26124666 5.28609144 22.61501895 6.66011516 23 9 C20.76387469 7.92334707 18.70247967 6.80426294 16.625 5.4375 C13.71537386 3.8441333 11.27519826 3.38083701 8 3 C8 3.66 8 4.32 8 5 C7.01 5 6.02 5 5 5 C5 4.34 5 3.68 5 3 C3.02 3 1.04 3 -1 3 C-0.67 2.01 -0.34 1.02 0 0 Z " fill="#716F70" transform="translate(323,152)"/>
<path d="M0 0 C0.33 0.66 0.66 1.32 1 2 C1.83809204 1.94670532 1.83809204 1.94670532 2.69311523 1.89233398 C5.27415416 1.73276723 7.85574906 1.58508068 10.4375 1.4375 C11.31599609 1.38142578 12.19449219 1.32535156 13.09960938 1.26757812 C18.87966658 0.94764876 24.26319401 1.21213753 30 2 C30 2.33 30 2.66 30 3 C27.03 3 24.06 3 21 3 C20.67 3.66 20.34 4.32 20 5 C19.01 4.67 18.02 4.34 17 4 C11.99935229 4.40988916 7.72323221 5.22878792 3 7 C3 7.99 3 8.98 3 10 C1.68 9.67 0.36 9.34 -1 9 C-0.34 7.68 0.32 6.36 1 5 C0.34 4.01 -0.32 3.02 -1 2 C-0.67 1.34 -0.34 0.68 0 0 Z " fill="#726F70" transform="translate(226,399)"/>
<path d="M0 0 C5 2 10 4 15 6 C13.02 6.99 13.02 6.99 11 8 C11.99 8.33 12.98 8.66 14 9 C13.01 9.99 12.02 10.98 11 12 C11.66 12.66 12.32 13.32 13 14 C11.35 14 9.7 14 8 14 C7.67 12.68 7.34 11.36 7 10 C5.35 9.67 3.7 9.34 2 9 C3.32 7.68 4.64 6.36 6 5 C4.35 4.67 2.7 4.34 1 4 C0.67 2.68 0.34 1.36 0 0 Z " fill="#6F6D6E" transform="translate(247,416)"/>
<path d="M0 0 C4 0 4 0 5.75 1.375 C7 3 7 3 7 5 C8.98 5 10.96 5 13 5 C11.85981998 8.42054006 11.07541482 9.2426201 8 11 C6 11 6 11 4 10 C1.3817703 7.3817703 0.08162686 5.91830222 -0.25 2.1875 C-0.1675 1.465625 -0.085 0.74375 0 0 Z " fill="#6B686A" transform="translate(318,188)"/>
<path d="M0 0 C5.875 0.875 5.875 0.875 7 2 C7.04080783 3.99958364 7.04254356 6.00045254 7 8 C0.6 9.23076923 0.6 9.23076923 -2.4375 8.0625 C-2.953125 7.711875 -3.46875 7.36125 -4 7 C-3.67 6.34 -3.34 5.68 -3 5 C-2.34 5 -1.68 5 -1 5 C-0.67 3.35 -0.34 1.7 0 0 Z " fill="#726C70" transform="translate(354,204)"/>
<path d="M0 0 C0.66 0.33 1.32 0.66 2 1 C2 4 2 4 0.1875 6.1875 C-2 8 -2 8 -5 8 C-5.33 8.99 -5.66 9.98 -6 11 C-7.55859375 12.4296875 -7.55859375 12.4296875 -9.4375 13.875 C-12.41355166 16.31438661 -13.9895372 18.18269609 -15 22 C-15.33 22 -15.66 22 -16 22 C-16.32421875 19.875 -16.32421875 19.875 -16 17 C-14.33005586 14.80070404 -12.73649774 12.94622621 -10.8125 11 C-10.32974609 10.49210937 -9.84699219 9.98421875 -9.34960938 9.4609375 C-6.28696344 6.25440887 -3.14387238 3.12662994 0 0 Z " fill="#777476" transform="translate(189,51)"/>
<path d="M0 0 C2 3.75 2 3.75 2 6 C-4.10739411 7.38003617 -10.22865544 8.3510015 -16.4375 9.125 C-17.13552734 9.21249512 -17.83355469 9.29999023 -18.55273438 9.39013672 C-21.39057731 9.73346874 -24.13848163 10 -27 10 C-23.96037388 7.3853012 -21.75885231 6.53451104 -17.796875 6.05078125 C-16.32734375 5.86225586 -16.32734375 5.86225586 -14.828125 5.66992188 C-13.81234375 5.55197266 -12.7965625 5.43402344 -11.75 5.3125 C-10.71875 5.18294922 -9.6875 5.05339844 -8.625 4.91992188 C-6.08447199 4.60235587 -3.54309905 4.29614471 -1 4 C-0.67 2.68 -0.34 1.36 0 0 Z " fill="#7D7879" transform="translate(324,305)"/>
<path d="M0 0 C-0.72265625 1.91015625 -0.72265625 1.91015625 -2 4 C-4.05859375 4.87109375 -4.05859375 4.87109375 -6.4375 5.4375 C-9.92609208 6.44706041 -10.76480646 6.69353569 -13.0625 9.6875 C-13.5265625 10.8321875 -13.5265625 10.8321875 -14 12 C-13.34 12.33 -12.68 12.66 -12 13 C-12.33 13.99 -12.66 14.98 -13 16 C-13.99 16.33 -14.98 16.66 -16 17 C-17.32287304 13.99347037 -16.91457085 12.71858633 -15.9375 9.5 C-13.60809254 4.55530325 -9.72068087 2.66180033 -4.75 0.75 C-2 0 -2 0 0 0 Z " fill="#737072" transform="translate(218,355)"/>
<path d="M0 0 C0.66 0.66 1.32 1.32 2 2 C0 3 0 3 -3.125 2.875 C-8.98887302 3.06415719 -13.77688713 4.48824652 -18 8.6875 C-18.66 9.450625 -19.32 10.21375 -20 11 C-20.33 9.68 -20.66 8.36 -21 7 C-14.3667794 1.34225302 -8.77177241 -1.21479582 0 0 Z " fill="#787679" transform="translate(242,149)"/>
<path d="M0 0 C-0.99 0.33 -1.98 0.66 -3 1 C-3 1.66 -3 2.32 -3 3 C-6.3 3 -9.6 3 -13 3 C-13 3.66 -13 4.32 -13 5 C-15.97 4.67 -18.94 4.34 -22 4 C-22.33 4.66 -22.66 5.32 -23 6 C-25.475 5.01 -25.475 5.01 -28 4 C-24.99044646 1.99363098 -23.95217929 1.68669553 -20.5078125 1.3671875 C-19.63769531 1.28339844 -18.76757812 1.19960938 -17.87109375 1.11328125 C-16.51177734 0.99533203 -16.51177734 0.99533203 -15.125 0.875 C-14.22652344 0.78863281 -13.32804688 0.70226562 -12.40234375 0.61328125 C-8.24839857 0.22672505 -4.17482062 -0.04349736 0 0 Z " fill="#81797D" transform="translate(244,319)"/>
<path d="M0 0 C0.33 0.99 0.66 1.98 1 3 C0.01 3.66 -0.98 4.32 -2 5 C-1.67 6.32 -1.34 7.64 -1 9 C-2.65 9 -4.3 9 -6 9 C-6 8.34 -6 7.68 -6 7 C-6.66 7 -7.32 7 -8 7 C-8.33 7.99 -8.66 8.98 -9 10 C-10.31647119 10.69937532 -11.65022151 11.36729133 -13 12 C-13.33 12.66 -13.66 13.32 -14 14 C-14.99 13.67 -15.98 13.34 -17 13 C-13.50164156 9.29394681 -9.99149936 6.47800508 -5.6875 3.6875 C-4.08455078 2.64142578 -4.08455078 2.64142578 -2.44921875 1.57421875 C-1.64097656 1.05472656 -0.83273438 0.53523438 0 0 Z " fill="#747174" transform="translate(208,37)"/>
<path d="M0 0 C-0.04125 0.94875 -0.0825 1.8975 -0.125 2.875 C-0.34973818 6.10244856 -0.34973818 6.10244856 2 8 C-0.95664519 9.4783226 -3.74229737 9.06032783 -7 9 C-6.01 7.35 -5.02 5.7 -4 4 C-4.639375 3.87625 -5.27875 3.7525 -5.9375 3.625 C-6.618125 3.41875 -7.29875 3.2125 -8 3 C-8.33 2.34 -8.66 1.68 -9 1 C-5.8035914 -0.06546953 -3.34252724 -0.07427838 0 0 Z " fill="#777475" transform="translate(236,191)"/>
<path d="M0 0 C2.33944736 0.28730055 4.6739143 0.61936779 7 1 C6.67 1.99 6.34 2.98 6 4 C4.35 3.67 2.7 3.34 1 3 C0.67 3.99 0.34 4.98 0 6 C-0.99 6.33 -1.98 6.66 -3 7 C-2.938125 8.423125 -2.938125 8.423125 -2.875 9.875 C-3 13 -3 13 -5 15 C-6.04537095 12.29840881 -6.08156212 11.21584123 -5.0390625 8.45703125 C-4.57242187 7.58433594 -4.10578125 6.71164063 -3.625 5.8125 C-3.16351563 4.93207031 -2.70203125 4.05164063 -2.2265625 3.14453125 C-1 1 -1 1 0 0 Z " fill="#797478" transform="translate(306,209)"/>
<path d="M0 0 C0.66 0 1.32 0 2 0 C2 0.66 2 1.32 2 2 C2.66 2.33 3.32 2.66 4 3 C4 3.99 4 4.98 4 6 C3.34 6 2.68 6 2 6 C2 6.66 2 7.32 2 8 C0.02 8.99 0.02 8.99 -2 10 C-2.66 9.34 -3.32 8.68 -4 8 C-3.64644564 5.73725212 -3.02455574 4.04911148 -2 2 C-1.34 2 -0.68 2 0 2 C0 1.34 0 0.68 0 0 Z " fill="#696669" transform="translate(351,201)"/>
<path d="M0 0 C0.66 0.66 1.32 1.32 2 2 C0.6875 3.5 0.6875 3.5 -1 5 C-1.99 5 -2.98 5 -4 5 C-4 5.66 -4 6.32 -4 7 C-4.99 7.33 -5.98 7.66 -7 8 C-7.99 8.66 -8.98 9.32 -10 10 C-10.59732819 7.23735711 -11 4.83967231 -11 2 C-9.9275 2.226875 -8.855 2.45375 -7.75 2.6875 C-4.07021424 3.35775825 -4.07021424 3.35775825 -1.5625 1.5625 C-1.046875 1.046875 -0.53125 0.53125 0 0 Z " fill="#797576" transform="translate(287,175)"/>
<path d="M0 0 C1.32 1.32 2.64 2.64 4 4 C3.175 4.5775 2.35 5.155 1.5 5.75 C0.675 6.4925 -0.15 7.235 -1 8 C-1 9.32 -1 10.64 -1 12 C-1.66 12 -2.32 12 -3 12 C-4.42041821 9.15916359 -4.31452272 7.14522722 -4 4 C-2 1.625 -2 1.625 0 0 Z " fill="#6C676B" transform="translate(235,210)"/>
<path d="M0 0 C0 0.66 0 1.32 0 2 C0.99 2 1.98 2 3 2 C3 1.34 3 0.68 3 0 C3.66 0 4.32 0 5 0 C5 0.99 5 1.98 5 3 C6.32 3 7.64 3 9 3 C9 3.66 9 4.32 9 5 C5.05470229 4.51548975 1.12006067 4.01771387 -2.8125 3.4375 C-5.95912505 2.93200999 -5.95912505 2.93200999 -9 3 C-9 2.34 -9 1.68 -9 1 C-6.04335481 -0.4783226 -3.25770263 -0.06032783 0 0 Z " fill="#847080" transform="translate(284,189)"/>
<path d="M0 0 C0 0.66 0 1.32 0 2 C2.475 2.99 2.475 2.99 5 4 C4.67 4.66 4.34 5.32 4 6 C3.67 5.67 3.34 5.34 3 5 C-0.10149646 4.71599669 -3.20292646 4.5512529 -6.3125 4.37890625 C-7.6428125 4.19134766 -7.6428125 4.19134766 -9 4 C-9.33 3.34 -9.66 2.68 -10 2 C-9.34 2 -8.68 2 -8 2 C-8 1.34 -8 0.68 -8 0 C-4.71303767 -0.79953138 -3.28976808 -1.09658936 0 0 Z " fill="#645F61" transform="translate(218,378)"/>
<path d="M0 0 C2.53559113 1.26779557 4.10056922 2.91062614 6 5 C6 5.66 6 6.32 6 7 C5.34 7 4.68 7 4 7 C4 7.66 4 8.32 4 9 C3.34 8.67 2.68 8.34 2 8 C2 7.01 2 6.02 2 5 C-4.435 5.495 -4.435 5.495 -11 6 C-11 5.34 -11 4.68 -11 4 C-9.9275 3.896875 -8.855 3.79375 -7.75 3.6875 C-4.14179128 3.02599507 -2.63604977 2.42516579 0 0 Z " fill="#605B5D" transform="translate(329,350)"/>
<path d="M0 0 C1.3125 2.0625 1.3125 2.0625 2 4 C1.01 4.33 0.02 4.66 -1 5 C-1 4.34 -1 3.68 -1 3 C-2.65 3 -4.3 3 -6 3 C-5.67 3.99 -5.34 4.98 -5 6 C-5.99 6 -6.98 6 -8 6 C-7.625 3.0625 -7.625 3.0625 -7 0 C-4.25509788 -1.37245106 -2.87939419 -0.93580311 0 0 Z " fill="#797478" transform="translate(193,173)"/>
<path d="M0 0 C0.66 0.33 1.32 0.66 2 1 C1.6875 3.875 1.6875 3.875 1 7 C-2 9 -2 9 -4.6875 8.625 C-5.450625 8.41875 -6.21375 8.2125 -7 8 C-6.67 6.35 -6.34 4.7 -6 3 C-4.35 3.33 -2.7 3.66 -1 4 C-0.67 2.68 -0.34 1.36 0 0 Z " fill="#6A686A" transform="translate(187,160)"/>
<path d="M0 0 C-0.33 0.66 -0.66 1.32 -1 2 C-3.97 2 -6.94 2 -10 2 C-10.33 2.99 -10.66 3.98 -11 5 C-11.66 5 -12.32 5 -13 5 C-13.66 3.68 -14.32 2.36 -15 1 C-11.85125386 -2.14874614 -3.86606338 -1.1224055 0 0 Z " fill="#736C73" transform="translate(242,336)"/>
<path d="M0 0 C1.65 0 3.3 0 5 0 C4.67 0.99 4.34 1.98 4 3 C8.29 3 12.58 3 17 3 C17 3.33 17 3.66 17 4 C10.97403427 5.0712828 5.11090483 5.09945415 -1 5 C-0.67 4.34 -0.34 3.68 0 3 C0 2.01 0 1.02 0 0 Z " fill="#646062" transform="translate(242,325)"/>
<path d="M0 0 C0 0.66 0 1.32 0 2 C0.66 2.33 1.32 2.66 2 3 C0.453125 3.37125 0.453125 3.37125 -1.125 3.75 C-5.00600143 4.84079063 -7.76009641 6.62933884 -11 9 C-11 8.01 -11 7.02 -11 6 C-4.42857143 0 -4.42857143 0 0 0 Z " fill="#747275" transform="translate(281,138)"/>
<path d="M0 0 C0 0.33 0 0.66 0 1 C-2.97 1 -5.94 1 -9 1 C-9.33 1.66 -9.66 2.32 -10 3 C-10.99 2.67 -11.98 2.34 -13 2 C-14.89470816 1.9314505 -16.7916834 1.91519628 -18.6875 1.9375 C-19.68136719 1.94652344 -20.67523438 1.95554687 -21.69921875 1.96484375 C-22.45847656 1.97644531 -23.21773437 1.98804688 -24 2 C-18.72069102 -3.27930898 -6.88465945 -0.99005058 0 0 Z " fill="#797377" transform="translate(256,401)"/>
<path d="M0 0 C0.98484375 0.01804687 1.9696875 0.03609375 2.984375 0.0546875 C4.10585937 0.08949219 4.10585937 0.08949219 5.25 0.125 C2.36371599 1.70054035 -0.28342384 2.58776373 -3.5 3.25 C-4.29921875 3.41757812 -5.0984375 3.58515625 -5.921875 3.7578125 C-6.52515625 3.87898438 -7.1284375 4.00015625 -7.75 4.125 C-7.75 4.785 -7.75 5.445 -7.75 6.125 C-7.09 6.785 -6.43 7.445 -5.75 8.125 C-7.07 8.125 -8.39 8.125 -9.75 8.125 C-10.875 4.375 -10.875 4.375 -9.75 2.125 C-6.49253773 -0.01177571 -3.83673622 -0.09135086 0 0 Z " fill="#625A5E" transform="translate(220.75,364.875)"/>
<path d="M0 0 C0.66 0 1.32 0 2 0 C1.67 2.31 1.34 4.62 1 7 C0.34 7 -0.32 7 -1 7 C-1.2475 7.86625 -1.495 8.7325 -1.75 9.625 C-3.06778613 13.18302254 -4.80186822 15.9226155 -7 19 C-7.33 18.34 -7.66 17.68 -8 17 C-7.37915039 15.21240234 -7.37915039 15.21240234 -6.34765625 13.0859375 C-5.98349609 12.32539063 -5.61933594 11.56484375 -5.24414062 10.78125 C-4.85419922 9.9871875 -4.46425781 9.193125 -4.0625 8.375 C-3.67642578 7.57320312 -3.29035156 6.77140625 -2.89257812 5.9453125 C-1.93538427 3.96002154 -0.97096525 1.97858263 0 0 Z " fill="#807D7E" transform="translate(379,197)"/>
<path d="M0 0 C0.99 0 1.98 0 3 0 C3 0.66 3 1.32 3 2 C4.65 2 6.3 2 8 2 C8.33 3.32 8.66 4.64 9 6 C6 8 6 8 3.8125 7.625 C3.214375 7.41875 2.61625 7.2125 2 7 C2 5.02 2 3.04 2 1 C1.34 0.67 0.68 0.34 0 0 Z " fill="#6A676A" transform="translate(335,194)"/>
<path d="M0 0 C2.32758311 0.93103324 3.74357132 1.65382128 5.25 3.6875 C6.28984508 6.89368898 6.24777051 9.65509807 6 13 C5.34 13.66 4.68 14.32 4 15 C3.87882812 14.33613281 3.75765625 13.67226562 3.6328125 12.98828125 C2.77452292 8.46575541 1.96028689 4.20061476 0 0 Z " fill="#767374" transform="translate(301,143)"/>
<path d="M0 0 C0.680625 -0.01417969 1.36125 -0.02835938 2.0625 -0.04296875 C4 0.1875 4 0.1875 7 2.1875 C2.26720327 4.14987913 -1.00152882 4.36361086 -6 3.1875 C-6.33 2.5275 -6.66 1.8675 -7 1.1875 C-4.35559361 0.3060312 -2.71939248 0.02575182 0 0 Z " fill="#7A787A" transform="translate(288,135.8125)"/>
<path d="M0 0 C2.33944736 0.28730055 4.6739143 0.61936779 7 1 C3.79989612 2.8133922 0.86716157 3.52213974 -2.75 4.125 C-3.73484375 4.29257812 -4.7196875 4.46015625 -5.734375 4.6328125 C-6.48203125 4.75398438 -7.2296875 4.87515625 -8 5 C-8 3.68 -8 2.36 -8 1 C-6.865625 1.020625 -5.73125 1.04125 -4.5625 1.0625 C-1.18424326 1.41577477 -1.18424326 1.41577477 0 0 Z " fill="#787577" transform="translate(243,32)"/>
<path d="M0 0 C0.33 0 0.66 0 1 0 C1.44926609 5.3911931 0.55309492 8.41770039 -2.04296875 13.1328125 C-3.19179869 15.37420316 -3.68848327 17.50786612 -4 20 C-4.66 20 -5.32 20 -6 20 C-4.63125844 13.04223041 -2.5466871 6.61396893 0 0 Z " fill="#7F787B" transform="translate(331,284)"/>
<path d="M0 0 C1.32 1.65 2.64 3.3 4 5 C4.99 4.01 5.98 3.02 7 2 C7 3.32 7 4.64 7 6 C6.34 6.66 5.68 7.32 5 8 C4.30251417 9.31747324 3.63040043 10.64914193 3 12 C0.97649676 8.96474514 0.67875982 7.80573798 0.375 4.3125 C0.30023438 3.50425781 0.22546875 2.69601563 0.1484375 1.86328125 C0.09945312 1.24839844 0.05046875 0.63351563 0 0 Z " fill="#646365" transform="translate(147,184)"/>
<path d="M0 0 C1.2065625 0.0309375 1.2065625 0.0309375 2.4375 0.0625 C-0.74733911 2.70136669 -3.8523821 5.20744105 -7.5625 7.0625 C-8.5525 6.7325 -9.5425 6.4025 -10.5625 6.0625 C-9.9025 5.7325 -9.2425 5.4025 -8.5625 5.0625 C-8.8925 4.0725 -9.2225 3.0825 -9.5625 2.0625 C-4.6875 1.0625 -4.6875 1.0625 -3.5625 1.0625 C-2.5625 0.0625 -2.5625 0.0625 0 0 Z " fill="#747072" transform="translate(216.5625,43.9375)"/>
<path d="M0 0 C1.65 1.32 3.3 2.64 5 4 C4.01 4 3.02 4 2 4 C2 4.99 2 5.98 2 7 C1.34 7 0.68 7 0 7 C0 6.34 0 5.68 0 5 C-3.96 5 -7.92 5 -12 5 C-11.67 4.34 -11.34 3.68 -11 3 C-7.7 3 -4.4 3 -1 3 C-0.67 2.01 -0.34 1.02 0 0 Z " fill="#625D5D" transform="translate(316,384)"/>
<path d="M0 0 C1.13529002 3.34491489 0.86633118 5.26065531 -0.3125 8.5625 C-0.57675781 9.32691406 -0.84101563 10.09132812 -1.11328125 10.87890625 C-2 13 -2 13 -4 16 C-5.59600529 12.80798943 -4.73185132 10.43407157 -4 7 C-2.82079321 4.52654186 -1.46995373 2.32347526 0 0 Z " fill="#767475" transform="translate(219,159)"/>
<path d="M0 0 C3.86584668 1.14218197 7.06311187 2.1718855 10 5 C10.75 7.1875 10.75 7.1875 11 9 C8.13132769 7.61735163 5.43975968 6.07851447 2.75 4.375 C2.04359375 3.92898437 1.3371875 3.48296875 0.609375 3.0234375 C0.07828125 2.68570313 -0.4528125 2.34796875 -1 2 C-0.67 1.34 -0.34 0.68 0 0 Z " fill="#7D797B" transform="translate(335,152)"/>
<path d="M0 0 C5 2 10 4 15 6 C13.32421875 7.1015625 13.32421875 7.1015625 11 8 C8.45703125 7.4609375 8.45703125 7.4609375 5.8125 6.375 C4.93207031 6.03210938 4.05164063 5.68921875 3.14453125 5.3359375 C1 4 1 4 0.19921875 1.8515625 C0.13347656 1.24054688 0.06773437 0.62953125 0 0 Z " fill="#797476" transform="translate(247,416)"/>
<path d="M0 0 C0 0.99 0 1.98 0 3 C-5.93024803 3.97040422 -11.06390334 3.89316269 -17 3 C-17 2.67 -17 2.34 -17 2 C-14.72954771 1.66408104 -12.45862367 1.33134935 -10.1875 1 C-8.29064453 0.7215625 -8.29064453 0.7215625 -6.35546875 0.4375 C-3 0 -3 0 0 0 Z " fill="#756E70" transform="translate(297,337)"/>
<path d="M0 0 C0.99 0.66 1.98 1.32 3 2 C5.32387947 2.39387788 7.65793749 2.73486085 10 3 C10 3.33 10 3.66 10 4 C5.05 4.66 0.1 5.32 -5 6 C-5 5.34 -5 4.68 -5 4 C-4.01 3.34 -3.02 2.68 -2 2 C-1.34 1.34 -0.68 0.68 0 0 Z " fill="#666263" transform="translate(229,327)"/>
<path d="M0 0 C0 0.66 0 1.32 0 2 C-5.96273825 4.81573751 -11.6677986 3.75822476 -18 3 C-18 2.67 -18 2.34 -18 2 C-15.93827387 1.66191314 -13.8755797 1.32972639 -11.8125 1 C-10.66394531 0.814375 -9.51539063 0.62875 -8.33203125 0.4375 C-5.49584607 0.06510523 -2.85280436 -0.08596021 0 0 Z " fill="#797275" transform="translate(265,325)"/>
<path d="M0 0 C5.875 0.875 5.875 0.875 7 2 C7.04080783 3.99958364 7.04254356 6.00045254 7 8 C4.69 8.33 2.38 8.66 0 9 C0.639375 8.7525 1.27875 8.505 1.9375 8.25 C4.18741541 7.18437567 4.18741541 7.18437567 4.75 4.875 C4.8325 4.25625 4.915 3.6375 5 3 C3.35 2.67 1.7 2.34 0 2 C0 1.34 0 0.68 0 0 Z " fill="#7F7A7D" transform="translate(354,204)"/>
<path d="M0 0 C2.475 0.99 2.475 0.99 5 2 C4.67 3.65 4.34 5.3 4 7 C2.35 6.67 0.7 6.34 -1 6 C-1 5.34 -1 4.68 -1 4 C-0.34 4 0.32 4 1 4 C0.67 2.68 0.34 1.36 0 0 Z M-2 7 C-1.34 7 -0.68 7 0 7 C0 7.66 0 8.32 0 9 C-0.99 9.33 -1.98 9.66 -3 10 C-2.67 9.01 -2.34 8.02 -2 7 Z " fill="#656265" transform="translate(331,320)"/>
<path d="M0 0 C-0.639375 0.309375 -1.27875 0.61875 -1.9375 0.9375 C-3.93610821 1.8345163 -3.93610821 1.8345163 -5 3 C-6.45156297 3.23421634 -7.91224343 3.41338404 -9.375 3.5625 C-10.16648437 3.64628906 -10.95796875 3.73007812 -11.7734375 3.81640625 C-14 4 -14 4 -17 4 C-11.95178125 -0.46573197 -6.47323485 -0.1294647 0 0 Z " fill="#868283" transform="translate(314,311)"/>
<path d="M0 0 C0.33 0 0.66 0 1 0 C1 3.96 1 7.92 1 12 C1.66 12 2.32 12 3 12 C2.41321669 15.52069985 1.64350079 17.71299843 0 21 C0 14.07 0 7.14 0 0 Z " fill="#7A7476" transform="translate(286,292)"/>
<path d="M0 0 C2.6875 -0.3125 2.6875 -0.3125 5 0 C5.66 1.32 6.32 2.64 7 4 C6.01 4.495 6.01 4.495 5 5 C5 4.34 5 3.68 5 3 C4.01 3 3.02 3 2 3 C1.01 4.485 1.01 4.485 0 6 C-0.99 5.67 -1.98 5.34 -3 5 C-1.8125 2.5 -1.8125 2.5 0 0 Z " fill="#848083" transform="translate(358,155)"/>
<path d="M0 0 C0.66 1.32 1.32 2.64 2 4 C1.34 4.66 0.68 5.32 0 6 C-0.99 6 -1.98 6 -3 6 C-3 6.99 -3 7.98 -3 9 C-4.32 9.33 -5.64 9.66 -7 10 C-5.33248852 6.05860922 -2.77289351 3.2107188 0 0 Z " fill="#6F6B77" transform="translate(301,407)"/>
<path d="M0 0 C4.62 0 9.24 0 14 0 C13.67 0.66 13.34 1.32 13 2 C10.05859375 2.4140625 10.05859375 2.4140625 6.4375 2.625 C5.23996094 2.69976562 4.04242188 2.77453125 2.80859375 2.8515625 C1.88175781 2.90054687 0.95492187 2.94953125 0 3 C0 2.01 0 1.02 0 0 Z " fill="#796F75" transform="translate(252,384)"/>
<path d="M0 0 C-0.7109375 1.921875 -0.7109375 1.921875 -2 4 C-4.1640625 4.828125 -4.1640625 4.828125 -6.625 5.25 C-7.85089844 5.47429687 -7.85089844 5.47429687 -9.1015625 5.703125 C-9.72804687 5.80109375 -10.35453125 5.8990625 -11 6 C-11.33 5.34 -11.66 4.68 -12 4 C-10.3767313 3.3291288 -8.75132422 2.66342971 -7.125 2 C-6.22007812 1.62875 -5.31515625 1.2575 -4.3828125 0.875 C-2 0 -2 0 0 0 Z " fill="#7C7879" transform="translate(218,355)"/>
<path d="M0 0 C1.32 0 2.64 0 4 0 C3.71788123 1.6266848 3.42397625 3.25132896 3.125 4.875 C2.96257812 5.77992188 2.80015625 6.68484375 2.6328125 7.6171875 C2 10 2 10 0 12 C0 8.04 0 4.08 0 0 Z " fill="#666363" transform="translate(303,236)"/>
<path d="M0 0 C4 4.625 4 4.625 4 8 C4.99 8.33 5.98 8.66 7 9 C7 9.66 7 10.32 7 11 C5.35 11.33 3.7 11.66 2 12 C2.04125 11.21625 2.0825 10.4325 2.125 9.625 C2.28728734 6.83883881 2.28728734 6.83883881 0 5 C-0.125 2.375 -0.125 2.375 0 0 Z " fill="#7B7677" transform="translate(269,175)"/>
<path d="M0 0 C2.475 0.495 2.475 0.495 5 1 C4.67 2.65 4.34 4.3 4 6 C0 1.125 0 1.125 0 0 Z M-2 5 C0.475 5.495 0.475 5.495 3 6 C2.01 6.99 1.02 7.98 0 9 C-0.66 7.68 -1.32 6.36 -2 5 Z " fill="#777475" transform="translate(295,139)"/>
<path d="M0 0 C0 0.66 0 1.32 0 2 C-4 4 -8 6 -12 8 C-11.7421875 6.140625 -11.7421875 6.140625 -11 4 C-9.2578125 2.734375 -9.2578125 2.734375 -7.125 1.75 C-6.42632812 1.41484375 -5.72765625 1.0796875 -5.0078125 0.734375 C-3 0 -3 0 0 0 Z " fill="#7A7677" transform="translate(222,31)"/>
<path d="M0 0 C0 0.33 0 0.66 0 1 C-3.31114834 2.12880057 -6.58978257 3.21302675 -10 4 C-10 3.34 -10 2.68 -10 2 C-12.64 2 -15.28 2 -18 2 C-18 1.67 -18 1.34 -18 1 C-11.96445452 0.30739642 -6.07593562 -0.11251733 0 0 Z " fill="#655F64" transform="translate(330,359)"/>
<path d="M0 0 C0.33 0 0.66 0 1 0 C1.22245393 1.60226955 1.42746669 3.20696767 1.625 4.8125 C1.74101562 5.70582031 1.85703125 6.59914062 1.9765625 7.51953125 C2 10 2 10 0 13 C-0.66 12.67 -1.32 12.34 -2 12 C-1.85962479 10.18706911 -1.71255111 8.3746557 -1.5625 6.5625 C-1.48128906 5.55316406 -1.40007812 4.54382813 -1.31640625 3.50390625 C-1 1 -1 1 0 0 Z " fill="#656265" transform="translate(386,168)"/>
<path d="M0 0 C0.33 0.66 0.66 1.32 1 2 C1.66 2.33 2.32 2.66 3 3 C0.625 4.5625 0.625 4.5625 -2 6 C-2.66 5.67 -3.32 5.34 -4 5 C-3.67 4.34 -3.34 3.68 -3 3 C-4.32 3.33 -5.64 3.66 -7 4 C-7 3.34 -7 2.68 -7 2 C-4.69 1.34 -2.38 0.68 0 0 Z " fill="#756F74" transform="translate(286,380)"/>
<path d="M0 0 C0.66 0.33 1.32 0.66 2 1 C1.42655063 3.86724686 1.1385485 4.8614515 -1 7 C-3.625 7.125 -3.625 7.125 -6 7 C-6 6.34 -6 5.68 -6 5 C-4.34467377 3.98133771 -2.67739862 2.98189187 -1 2 C-0.67 1.34 -0.34 0.68 0 0 Z " fill="#787579" transform="translate(344,189)"/>
<path d="M0 0 C0 0.99 0 1.98 0 3 C-3.47325181 4.1577506 -6.36067448 4.06866652 -10 4 C-7.75282684 -0.49434631 -4.47478037 -0.19887913 0 0 Z " fill="#767071" transform="translate(275,190)"/>
<path d="M0 0 C0.66 0 1.32 0 2 0 C1.47731534 2.76276177 0.89130413 5.3260876 0 8 C-1.32 8 -2.64 8 -4 8 C-2.87548273 5.0280615 -1.77706209 2.66559313 0 0 Z " fill="#767175" transform="translate(223,387)"/>
<path d="M0 0 C0 0.33 0 0.66 0 1 C-0.969375 1.12375 -1.93875 1.2475 -2.9375 1.375 C-4.4534375 1.684375 -4.4534375 1.684375 -6 2 C-6.33 2.66 -6.66 3.32 -7 4 C-7.8353125 3.7834375 -7.8353125 3.7834375 -8.6875 3.5625 C-11.11384195 2.97230872 -13.54906345 2.476571 -16 2 C-16 1.67 -16 1.34 -16 1 C-10.59255982 0.22750855 -5.46137814 -0.09752461 0 0 Z " fill="#665E64" transform="translate(276,382)"/>
<path d="M0 0 C3.63 0 7.26 0 11 0 C11.33 0.66 11.66 1.32 12 2 C7.38926889 3.29676812 3.66159911 2.71109139 -1 2 C-0.67 1.34 -0.34 0.68 0 0 Z " fill="#7B787C" transform="translate(219,371)"/>
<path d="M0 0 C0 0.33 0 0.66 0 1 C-4.67201205 2.20568053 -9.21496292 2.09382426 -14 2 C-9.58539595 -2.41460405 -5.51967722 -2.36557595 0 0 Z " fill="#686163" transform="translate(297,357)"/>
<path d="M0 0 C0.66 0.33 1.32 0.66 2 1 C1.40895235 5.84659077 0.02055843 9.60748167 -2 14 C-2.68707555 11.50935112 -3 9.62113708 -3 7 C-2 5.66666667 -1 4.33333333 0 3 C0 2.01 0 1.02 0 0 Z " fill="#686263" transform="translate(343,276)"/>
<path d="M0 0 C0.99 0.33 1.98 0.66 3 1 C2.1875 3.4375 2.1875 3.4375 1 6 C0.01 6.33 -0.98 6.66 -2 7 C-2.6875 5.1875 -2.6875 5.1875 -3 3 C-1.5625 1.25 -1.5625 1.25 0 0 Z " fill="#646364" transform="translate(309,220)"/>
<path d="M0 0 C-0.33 0.66 -0.66 1.32 -1 2 C-3.06640625 2.6328125 -3.06640625 2.6328125 -5.5625 3.125 C-6.38878906 3.29257813 -7.21507812 3.46015625 -8.06640625 3.6328125 C-8.70449219 3.75398437 -9.34257812 3.87515625 -10 4 C-9 1 -9 1 -6.6875 -0.25 C-3.90126985 -1.0275526 -2.66561622 -0.98726527 0 0 Z " fill="#7E7B7C" transform="translate(313,183)"/>
<path d="M0 0 C5.42039575 -0.40652968 9.07015675 0.96006486 14 3 C13.01 3.66 12.02 4.32 11 5 C8.30078125 4.3203125 8.30078125 4.3203125 5.3125 3.125 C4.31863281 2.73570313 3.32476562 2.34640625 2.30078125 1.9453125 C1.54152344 1.63335938 0.78226562 1.32140625 0 1 C0 0.67 0 0.34 0 0 Z " fill="#807280" transform="translate(304,26)"/>
<path d="M0 0 C-3.92074329 2.61382886 -7.44511017 2.29386386 -12 2 C-12.66 1.34 -13.32 0.68 -14 0 C-8.40693931 -2.05459372 -5.59306069 -2.05459372 0 0 Z " fill="#737073" transform="translate(270,334)"/>
<path d="M0 0 C1 3 1 3 0.22265625 5.04296875 C-0.16019531 5.75066406 -0.54304688 6.45835937 -0.9375 7.1875 C-1.31777344 7.90292969 -1.69804687 8.61835938 -2.08984375 9.35546875 C-2.54037109 10.16951172 -2.54037109 10.16951172 -3 11 C-3.99 11 -4.98 11 -6 11 C-4.54955729 6.89041233 -2.48889248 3.56741255 0 0 Z " fill="#888487" transform="translate(370,216)"/>
<path d="M0 0 C0.66 0.33 1.32 0.66 2 1 C1.34 2.32 0.68 3.64 0 5 C-1.98 5 -3.96 5 -6 5 C-6 4.01 -6 3.02 -6 2 C-4.7934375 1.7834375 -4.7934375 1.7834375 -3.5625 1.5625 C-1.07896294 1.25864751 -1.07896294 1.25864751 0 0 Z " fill="#817A81" transform="translate(188,166)"/>
<path d="M0 0 C0.33 0.66 0.66 1.32 1 2 C3.34386809 2.91031272 3.34386809 2.91031272 6.0625 3.625 C6.98160156 3.88539062 7.90070313 4.14578125 8.84765625 4.4140625 C9.55792969 4.60742188 10.26820313 4.80078125 11 5 C10.67 5.66 10.34 6.32 10 7 C8.39402675 6.54803755 6.79027492 6.08817673 5.1875 5.625 C4.29417969 5.36976562 3.40085937 5.11453125 2.48046875 4.8515625 C0 4 0 4 -3 2 C-2.01 2 -1.02 2 0 2 C0 1.34 0 0.68 0 0 Z " fill="#837080" transform="translate(306,34)"/>
<path d="M0 0 C1.31677734 0.13148437 1.31677734 0.13148437 2.66015625 0.265625 C4.9375 0.75 4.9375 0.75 6.9375 2.75 C3.14181539 3.72798721 0.4369001 3.67653069 -3.375 2.8125 C-4.69951172 2.52052734 -4.69951172 2.52052734 -6.05078125 2.22265625 C-6.71464844 2.06667969 -7.37851562 1.91070312 -8.0625 1.75 C-4.66746995 -0.51335337 -3.89242437 -0.43567637 0 0 Z " fill="#7C747C" transform="translate(298.0625,32.25)"/>
<path d="M0 0 C0.33 0.66 0.66 1.32 1 2 C0.21625 2.144375 -0.5675 2.28875 -1.375 2.4375 C-3.96421018 2.87798925 -3.96421018 2.87798925 -6 4 C-6 3.34 -6 2.68 -6 2 C-7.32 1.67 -8.64 1.34 -10 1 C-6.78548731 -0.60725635 -3.56387464 -0.05748185 0 0 Z " fill="#797677" transform="translate(300,186)"/>
<path d="M0 0 C-3.5657989 1.96733733 -5.93941676 2 -10 2 C-9.67 1.01 -9.34 0.02 -9 -1 C-5.22102349 -2.0497157 -3.35080929 -2.10976881 0 0 Z " fill="#767173" transform="translate(314,347)"/>
<path d="M0 0 C0.66 0.66 1.32 1.32 2 2 C1.67 2.99 1.34 3.98 1 5 C0.34 5 -0.32 5 -1 5 C-1 6.65 -1 8.3 -1 10 C-1.66 9.34 -2.32 8.68 -3 8 C-2.54545455 2.54545455 -2.54545455 2.54545455 0 0 Z " fill="#6A676A" transform="translate(238,223)"/>
<path d="M0 0 C2.35171131 0.59861742 4.6859378 1.26924352 7 2 C7.33 2.66 7.66 3.32 8 4 C7.34 4 6.68 4 6 4 C5.67 4.66 5.34 5.32 5 6 C5 5.34 5 4.68 5 4 C4.38125 3.87625 3.7625 3.7525 3.125 3.625 C1 3 1 3 -1 1 C-0.67 0.67 -0.34 0.34 0 0 Z " fill="#7A7879" transform="translate(262,184)"/>
<path d="M0 0 C0.78375 0.04125 1.5675 0.0825 2.375 0.125 C2.375 1.115 2.375 2.105 2.375 3.125 C0.725 2.795 -0.925 2.465 -2.625 2.125 C-2.955 3.115 -3.285 4.105 -3.625 5.125 C-4.615 5.455 -5.605 5.785 -6.625 6.125 C-3.85227273 0.18344156 -3.85227273 0.18344156 0 0 Z " fill="#7E797E" transform="translate(187.625,156.875)"/>
<path d="M0 0 C0.66 0 1.32 0 2 0 C1.1875 3.4375 1.1875 3.4375 0 7 C-0.99 7.33 -1.98 7.66 -3 8 C-3 6.35 -3 4.7 -3 3 C-2.34 3 -1.68 3 -1 3 C-0.67 2.01 -0.34 1.02 0 0 Z " fill="#767273" transform="translate(273,151)"/>
<path d="M0 0 C3.63 1.32 7.26 2.64 11 4 C11 4.66 11 5.32 11 6 C9.5410574 5.52269162 8.08286504 5.04308958 6.625 4.5625 C5.81289062 4.29566406 5.00078125 4.02882813 4.1640625 3.75390625 C2 3 2 3 0 2 C0 1.34 0 0.68 0 0 Z " fill="#646061" transform="translate(247,426)"/>
<path d="M0 0 C1.21236328 0.01353516 1.21236328 0.01353516 2.44921875 0.02734375 C3.37154297 0.04474609 3.37154297 0.04474609 4.3125 0.0625 C3.9825 0.7225 3.6525 1.3825 3.3125 2.0625 C2.384375 2.02125 1.45625 1.98 0.5 1.9375 C-2.84559719 1.79113661 -2.84559719 1.79113661 -5.6875 4.0625 C-6.3475 3.7325 -7.0075 3.4025 -7.6875 3.0625 C-7.6875 2.4025 -7.6875 1.7425 -7.6875 1.0625 C-4.80538698 0.10179566 -2.98899956 -0.04331883 0 0 Z " fill="#777577" transform="translate(291.6875,395.9375)"/>
<path d="M0 0 C-0.99 0.33 -1.98 0.66 -3 1 C-3.33 1.99 -3.66 2.98 -4 4 C-4.33 3.67 -4.66 3.34 -5 3 C-6.68183948 2.76712992 -8.3712416 2.58735834 -10.0625 2.4375 C-11.44115234 2.31181641 -11.44115234 2.31181641 -12.84765625 2.18359375 C-13.91306641 2.09271484 -13.91306641 2.09271484 -15 2 C-15 1.67 -15 1.34 -15 1 C-9.9752761 0.37470103 -5.07471573 -0.13012092 0 0 Z " fill="#635F63" transform="translate(287,396)"/>
<path d="M0 0 C0 0.66 0 1.32 0 2 C-0.99 2.495 -0.99 2.495 -2 3 C-2.40729228 5.32156597 -2.74438677 7.6568787 -3 10 C-5.29013653 6.5647952 -5.17842973 5.014669 -5 1 C-2 0 -2 0 0 0 Z " fill="#635F60" transform="translate(324,369)"/>
<path d="M0 0 C0.99 0.99 1.98 1.98 3 3 C0.36095629 4.41377341 -2.07120629 5.37240135 -5 6 C-5 5.01 -5 4.02 -5 3 C-3.68 3 -2.36 3 -1 3 C-0.67 2.01 -0.34 1.02 0 0 Z " fill="#696662" transform="translate(200,204)"/>
<path d="M0 0 C0.66 0.66 1.32 1.32 2 2 C-1.3 2 -4.6 2 -8 2 C-8 1.34 -8 0.68 -8 0 C-5.09288879 -1.4535556 -3.10402897 -0.71133997 0 0 Z " fill="#766F74" transform="translate(301,192)"/>
<path d="M0 0 C0.66 0 1.32 0 2 0 C2 0.66 2 1.32 2 2 C1.34 2 0.68 2 0 2 C0.66 3.65 1.32 5.3 2 7 C1.34 7.66 0.68 8.32 0 9 C-0.66 9 -1.32 9 -2 9 C-2.25 3.375 -2.25 3.375 0 0 Z " fill="#727172" transform="translate(156,123)"/>
<path d="M0 0 C2.64 0.33 5.28 0.66 8 1 C8 1.66 8 2.32 8 3 C5.03 3 2.06 3 -1 3 C-0.67 2.01 -0.34 1.02 0 0 Z " fill="#79777A" transform="translate(286,21)"/>
<path d="M0 0 C3.3 0 6.6 0 10 0 C6.55549263 2.29633824 4.06187717 2.54016485 0 3 C0 2.01 0 1.02 0 0 Z " fill="#777076" transform="translate(234,370)"/>
<path d="M0 0 C0.66 0.33 1.32 0.66 2 1 C1.01 2.98 0.02 4.96 -1 7 C-1.99 7 -2.98 7 -4 7 C-2.92598892 4.08482708 -2.22189824 2.22189824 0 0 Z " fill="#747174" transform="translate(358,235)"/>
<path d="M0 0 C-5.75 4 -5.75 4 -8 4 C-7.67 2.68 -7.34 1.36 -7 0 C-3.98968256 -0.93423645 -3.13349732 -1.04449911 0 0 Z " fill="#7F777F" transform="translate(219,211)"/>
<path d="M0 0 C0.99 0.99 1.98 1.98 3 3 C1.515 5.475 1.515 5.475 0 8 C-0.66 7.67 -1.32 7.34 -2 7 C-1.125 1.125 -1.125 1.125 0 0 Z " fill="#6B6869" transform="translate(237,190)"/>
<path d="M0 0 C0.66 0 1.32 0 2 0 C2 0.99 2 1.98 2 3 C3.32 3 4.64 3 6 3 C6 3.66 6 4.32 6 5 C3.36 4.67 0.72 4.34 -2 4 C-1.34 2.68 -0.68 1.36 0 0 Z " fill="#806779" transform="translate(287,189)"/>
<path d="M0 0 C-0.99 0.495 -0.99 0.495 -2 1 C-2.33 1.99 -2.66 2.98 -3 4 C-4.65 4 -6.3 4 -8 4 C-7.67 2.68 -7.34 1.36 -7 0 C-3.98968256 -0.93423645 -3.13349732 -1.04449911 0 0 Z " fill="#6F6D6E" transform="translate(297,139)"/>
<path d="M0 0 C0.66 0.66 1.32 1.32 2 2 C1.625 4.125 1.625 4.125 1 6 C-0.32 5.67 -1.64 5.34 -3 5 C-2.625 3.0625 -2.625 3.0625 -2 1 C-1.34 0.67 -0.68 0.34 0 0 Z " fill="#676265" transform="translate(151,115)"/>
<path d="M0 0 C4.95 0.99 4.95 0.99 10 2 C7 4 7 4 4.4375 3.6875 C2 3 2 3 0 2 C0 1.34 0 0.68 0 0 Z " fill="#726F72" transform="translate(297,23)"/>
<path d="M0 0 C0 0.33 0 0.66 0 1 C-5.16044765 2.512545 -8.65998179 3.33500455 -14 2 C-14 1.67 -14 1.34 -14 1 C-9.23692563 0.04738513 -4.8333472 -0.08333357 0 0 Z " fill="#7A7277" transform="translate(320,361)"/>
<path d="M0 0 C-0.33 1.32 -0.66 2.64 -1 4 C-3.31 3.67 -5.62 3.34 -8 3 C-4.93882432 0.37613513 -4.26826873 0 0 0 Z " fill="#757272" transform="translate(279,338)"/>
<path d="M0 0 C2.31 0 4.62 0 7 0 C6.67 1.65 6.34 3.3 6 5 C2.83884224 3.63016497 2.0072908 3.0109362 0 0 Z " fill="#726F72" transform="translate(319,194)"/>
<path d="M0 0 C-2.39509338 2.89932357 -4.31245243 3.50168276 -8 4 C-7.67 2.68 -7.34 1.36 -7 0 C-3.98968256 -0.93423645 -3.13349732 -1.04449911 0 0 Z " fill="#666465" transform="translate(229,162)"/>
<path d="M0 0 C2.64 0.33 5.28 0.66 8 1 C8 1.66 8 2.32 8 3 C5.69 3.33 3.38 3.66 1 4 C0.67 2.68 0.34 1.36 0 0 Z " fill="#716E6F" transform="translate(281,387)"/>
<path d="M0 0 C3.96 0 7.92 0 12 0 C11.67 1.32 11.34 2.64 11 4 C10.34 3.67 9.68 3.34 9 3 C9 2.34 9 1.68 9 1 C6.03 1 3.06 1 0 1 C0 0.67 0 0.34 0 0 Z " fill="#645D63" transform="translate(235,369)"/>
<path d="M0 0 C2.64 0.33 5.28 0.66 8 1 C7.67 1.66 7.34 2.32 7 3 C4.4375 3.625 4.4375 3.625 2 4 C1.34 2.68 0.68 1.36 0 0 Z " fill="#79757B" transform="translate(213,337)"/>
<path d="M0 0 C1.67542976 0.28604898 3.34385343 0.61781233 5 1 C4.67 1.66 4.34 2.32 4 3 C1.9375 3.625 1.9375 3.625 0 4 C-0.33 3.01 -0.66 2.02 -1 1 C-0.67 0.67 -0.34 0.34 0 0 Z M-2 3 C-1.34 3.33 -0.68 3.66 0 4 C0 4.66 0 5.32 0 6 C-0.99 5.67 -1.98 5.34 -3 5 C-2.67 4.34 -2.34 3.68 -2 3 Z " fill="#717072" transform="translate(283,330)"/>
<path d="M0 0 C1.32 0.33 2.64 0.66 4 1 C4 3.31 4 5.62 4 8 C1.84622436 5.37801226 0.59927826 3.35595828 0 0 Z " fill="#776E72" transform="translate(157,216)"/>
<path d="M0 0 C0.33 0 0.66 0 1 0 C0.67 2.97 0.34 5.94 0 9 C-0.66 9 -1.32 9 -2 9 C-3 6 -3 6 -1.5625 2.8125 C-1.046875 1.884375 -0.53125 0.95625 0 0 Z " fill="#686465" transform="translate(313,211)"/>
<path d="M0 0 C1.32 0.33 2.64 0.66 4 1 C4 1.66 4 2.32 4 3 C2 4.625 2 4.625 0 6 C0 5.34 0 4.68 0 4 C-1.32 3.67 -2.64 3.34 -4 3 C-2.68 2.34 -1.36 1.68 0 1 C0 0.67 0 0.34 0 0 Z " fill="#6B666A" transform="translate(331,196)"/>
<path d="M0 0 C-1.24546405 3.73639216 -2.63404953 4.18756513 -6 6 C-6 3 -6 3 -4.6875 1.3125 C-3 0 -3 0 0 0 Z " fill="#7B797B" transform="translate(276,141)"/>
<path d="M0 0 C2.64 0 5.28 0 8 0 C8.33 0.66 8.66 1.32 9 2 C6.69 2.33 4.38 2.66 2 3 C1.34 2.01 0.68 1.02 0 0 Z " fill="#7B787B" transform="translate(322,325)"/>
<path d="M0 0 C2 3 2 3 1.625 6.1875 C1.41875 7.115625 1.2125 8.04375 1 9 C-1 6 -1 6 -0.625 2.8125 C-0.41875 1.884375 -0.2125 0.95625 0 0 Z " fill="#856A6B" transform="translate(257,294)"/>
<path d="M0 0 C0.99 0 1.98 0 3 0 C3 1.65 3 3.3 3 5 C2.01 5.33 1.02 5.66 0 6 C0 4.02 0 2.04 0 0 Z " fill="#676465" transform="translate(383,183)"/>
<path d="M0 0 C0.66 0 1.32 0 2 0 C3.125 2.8125 3.125 2.8125 4 6 C3.01 7.485 3.01 7.485 2 9 C1.34 6.03 0.68 3.06 0 0 Z " fill="#717073" transform="translate(249,165)"/>
<path d="M0 0 C1.65 0.33 3.3 0.66 5 1 C4.67 1.66 4.34 2.32 4 3 C3.34 3 2.68 3 2 3 C2 3.66 2 4.32 2 5 C1.01 5 0.02 5 -1 5 C-0.67 3.35 -0.34 1.7 0 0 Z " fill="#615F61" transform="translate(154,101)"/>
<path d="" fill="#FFFFFF" transform="translate(0,0)"/>
<path d="" fill="#FFFFFF" transform="translate(0,0)"/>
<path d="" fill="#FFFFFF" transform="translate(0,0)"/>
<path d="" fill="#FFFFFF" transform="translate(0,0)"/>
<path d="" fill="#FFFFFF" transform="translate(0,0)"/>
<path d="" fill="#FFFFFF" transform="translate(0,0)"/>
<path d="" fill="#FFFFFF" transform="translate(0,0)"/>
<path d="" fill="#FFFFFF" transform="translate(0,0)"/>
<path d="" fill="#FFFFFF" transform="translate(0,0)"/>
<path d="" fill="#FFFFFF" transform="translate(0,0)"/>
<path d="" fill="#FFFFFF" transform="translate(0,0)"/>
<path d="" fill="#FFFFFF" transform="translate(0,0)"/>
<path d="" fill="#FFFFFF" transform="translate(0,0)"/>
<path d="" fill="#FFFFFF" transform="translate(0,0)"/>
<path d="" fill="#FFFFFF" transform="translate(0,0)"/>
<path d="" fill="#FFFFFF" transform="translate(0,0)"/>
<path d="" fill="#FFFFFF" transform="translate(0,0)"/>
<path d="" fill="#FFFFFF" transform="translate(0,0)"/>
<path d="" fill="#FFFFFF" transform="translate(0,0)"/>
<path d="" fill="#FFFFFF" transform="translate(0,0)"/>
<path d="" fill="#FFFFFF" transform="translate(0,0)"/>
<path d="" fill="#FFFFFF" transform="translate(0,0)"/>
<path d="" fill="#FFFFFF" transform="translate(0,0)"/>
<path d="" fill="#FFFFFF" transform="translate(0,0)"/>
<path d="" fill="#FFFFFF" transform="translate(0,0)"/>
<path d="" fill="#FFFFFF" transform="translate(0,0)"/>
<path d="" fill="#FFFFFF" transform="translate(0,0)"/>
<path d="" fill="#FFFFFF" transform="translate(0,0)"/>
<path d="" fill="#FFFFFF" transform="translate(0,0)"/>
<path d="" fill="#FFFFFF" transform="translate(0,0)"/>
<path d="" fill="#FFFFFF" transform="translate(0,0)"/>
<path d="" fill="#FFFFFF" transform="translate(0,0)"/>
<path d="" fill="#FFFFFF" transform="translate(0,0)"/>
<path d="" fill="#FFFFFF" transform="translate(0,0)"/>
<path d="" fill="#FFFFFF" transform="translate(0,0)"/>
<path d="" fill="#FFFFFF" transform="translate(0,0)"/>
<path d="" fill="#FFFFFF" transform="translate(0,0)"/>
<path d="" fill="#FFFFFF" transform="translate(0,0)"/>
<path d="" fill="#FFFFFF" transform="translate(0,0)"/>
<path d="" fill="#FFFFFF" transform="translate(0,0)"/>
<path d="" fill="#FFFFFF" transform="translate(0,0)"/>
<path d="" fill="#FFFFFF" transform="translate(0,0)"/>
<path d="" fill="#FFFFFF" transform="translate(0,0)"/>
<path d="" fill="#FFFFFF" transform="translate(0,0)"/>
<path d="" fill="#FFFFFF" transform="translate(0,0)"/>
<path d="" fill="#FFFFFF" transform="translate(0,0)"/>
<path d="" fill="#FFFFFF" transform="translate(0,0)"/>
<path d="" fill="#FFFFFF" transform="translate(0,0)"/>
<path d="" fill="#FFFFFF" transform="translate(0,0)"/>
<path d="" fill="#FFFFFF" transform="translate(0,0)"/>
<path d="" fill="#FFFFFF" transform="translate(0,0)"/>
<path d="" fill="#FFFFFF" transform="translate(0,0)"/>
<path d="" fill="#FFFFFF" transform="translate(0,0)"/>
<path d="" fill="#FFFFFF" transform="translate(0,0)"/>
<path d="" fill="#FFFFFF" transform="translate(0,0)"/>
<path d="" fill="#FFFFFF" transform="translate(0,0)"/>
<path d="" fill="#FFFFFF" transform="translate(0,0)"/>
<path d="" fill="#FFFFFF" transform="translate(0,0)"/>
<path d="" fill="#FFFFFF" transform="translate(0,0)"/>
<path d="" fill="#FFFFFF" transform="translate(0,0)"/>
<path d="" fill="#FFFFFF" transform="translate(0,0)"/>
<path d="" fill="#FFFFFF" transform="translate(0,0)"/>
<path d="" fill="#FFFFFF" transform="translate(0,0)"/>
<path d="" fill="#FFFFFF" transform="translate(0,0)"/>
<path d="" fill="#FFFFFF" transform="translate(0,0)"/>
<path d="" fill="#FFFFFF" transform="translate(0,0)"/>
<path d="" fill="#FFFFFF" transform="translate(0,0)"/>
<path d="" fill="#FFFFFF" transform="translate(0,0)"/>
<path d="" fill="#FFFFFF" transform="translate(0,0)"/>
<path d="" fill="#FFFFFF" transform="translate(0,0)"/>
<path d="" fill="#FFFFFF" transform="translate(0,0)"/>
<path d="" fill="#FFFFFF" transform="translate(0,0)"/>
<path d="" fill="#FFFFFF" transform="translate(0,0)"/>
<path d="" fill="#FFFFFF" transform="translate(0,0)"/>
<path d="" fill="#FFFFFF" transform="translate(0,0)"/>
<path d="" fill="#FFFFFF" transform="translate(0,0)"/>
<path d="" fill="#FFFFFF" transform="translate(0,0)"/>
<path d="" fill="#FFFFFF" transform="translate(0,0)"/>
<path d="" fill="#FFFFFF" transform="translate(0,0)"/>
<path d="" fill="#FFFFFF" transform="translate(0,0)"/>
</svg>
